<?xml version="1.0" encoding="UTF-8"?>
<svg width="150px" height="40px" viewBox="0 0 150 40" version="1.1" xmlns="http://www.w3.org/2000/svg" xmlns:xlink="http://www.w3.org/1999/xlink">
    <!-- Generator: Sketch 62 (91390) - https://sketch.com -->
    <title>blueiot-logo</title>
    <desc>Created with Sketch.</desc>
    <g id="页面-1" stroke="none" stroke-width="1" fill="none" fill-rule="evenodd">
        <g id="banner" transform="translate(-360.000000, -60.000000)">
            <g id="blueiot-logo" transform="translate(360.000000, 60.000000)">
                <g id="编组-2" fill="#0094FF">
                    <path d="M19.5591,-8.38440428e-13 L13.5075,-8.38440428e-13 L13.5075,7.28120301 L19.3386,7.28120301 C26.1921,7.28120301 31.8927,12.8063158 31.8549,19.6769925 C31.818,26.4192481 26.3535,31.8977444 19.6278,31.9350376 C12.7743,31.9729323 7.263,26.2583459 7.263,19.3873684 L7.263,-8.38440428e-13 L5.36459765e-13,-8.38440428e-13 L5.36459765e-13,19.6081203 C5.36459765e-13,30.437594 8.7567,39.2159398 19.5591,39.2159398 C30.3615,39.2159398 39.1179,30.437594 39.1179,19.6081203 C39.1179,8.77864662 30.3615,-8.38440428e-13 19.5591,-8.38440428e-13" id="Fill-1"></path>
                    <path d="M19.5591,13.5414436 L13.5075,13.5414436 L13.5075,19.4797895 C13.5075,22.9946767 16.4277,25.8740752 19.9272,25.6635489 C23.0979,25.4728722 25.6107,22.8343759 25.6107,19.6082105 C25.6107,16.2575338 22.9011,13.5414436 19.5591,13.5414436" id="Fill-3"></path>
                </g>
                <g id="编组-3" transform="translate(51.221040, 1.880511)" fill="#516275">
                    <path d="M80.36022,7.84911278 C77.38272,7.84911278 74.96022,10.2776842 74.96022,13.2626466 C74.96022,16.247609 77.38272,18.6761805 80.36022,18.6761805 C83.33772,18.6761805 85.76022,16.247609 85.76022,13.2626466 C85.76022,10.2776842 83.33772,7.84911278 80.36022,7.84911278 M80.36022,22.2873083 C75.39642,22.2873083 71.35782,18.2388872 71.35782,13.2626466 C71.35782,8.28640602 75.39642,4.23768421 80.36022,4.23768421 C85.32432,4.23768421 89.36262,8.28640602 89.36262,13.2626466 C89.36262,18.2388872 85.32432,22.2873083 80.36022,22.2873083" id="Fill-5"></path>
                    <path d="M9.0024,18.6761805 C6.0249,18.6761805 3.6024,16.247609 3.6024,13.2626466 C3.6024,10.2776842 6.0249,7.84911278 9.0024,7.84911278 C11.9802,7.84911278 14.4024,10.2776842 14.4024,13.2626466 C14.4024,16.247609 11.9802,18.6761805 9.0024,18.6761805 M9.0024,4.23768421 C6.978,4.23768421 5.1081,4.91136842 3.6024,6.04640602 L3.6024,1.66535338 L-5.87974114e-13,1.66535338 L-5.87974114e-13,13.2626466 C-5.87974114e-13,18.2388872 4.0386,22.2873083 9.0024,22.2873083 C13.9665,22.2873083 18.0048,18.2388872 18.0048,13.2626466 C18.0048,8.28640602 13.9665,4.23768421 9.0024,4.23768421" id="Fill-7"></path>
                    <polygon id="Fill-9" points="20.42196 22.1321805 24.02436 22.1321805 24.02436 1.66541353 20.42196 1.66541353"></polygon>
                    <path d="M34.61373,22.2904962 C30.09393,22.2904962 26.41653,18.6038797 26.41653,14.0727519 L26.41653,6.04778947 L30.01893,6.04778947 L30.01893,14.0727519 C30.01893,16.6126015 32.08023,18.6790677 34.61373,18.6790677 C37.14723,18.6790677 39.20853,16.6126015 39.20853,14.0727519 L39.20853,6.04778947 L42.81093,6.04778947 L42.81093,14.0727519 C42.81093,18.6038797 39.13353,22.2904962 34.61373,22.2904962" id="Fill-11"></path>
                    <path d="M98.64588,9.64893233 L98.64588,6.03750376 L95.41338,6.03750376 L95.41338,1.66547368 L91.81098,1.66547368 L91.81098,16.4095338 C91.81098,19.5650226 94.37148,22.1319398 97.51908,22.1319398 L98.64588,22.1319398 L98.64588,18.520812 L97.51908,18.520812 C96.35808,18.520812 95.41338,17.5737444 95.41338,16.4095338 L95.41338,9.64893233 L98.64588,9.64893233 Z" id="Fill-12"></path>
                    <path d="M69.12369,2.02045113 C69.12369,3.1362406 68.22129,4.0406015 67.10829,4.0406015 C65.99529,4.0406015 65.09289,3.1362406 65.09289,2.02045113 C65.09289,0.904661654 65.99529,-2.93987057e-13 67.10829,-2.93987057e-13 C68.22129,-2.93987057e-13 69.12369,0.904661654 69.12369,2.02045113" id="Fill-13"></path>
                    <polygon id="Fill-14" points="65.30706 22.1321805 68.90946 22.1321805 68.90946 6.03323308 65.30706 6.03323308"></polygon>
                    <path d="M50.37135,9.45215038 C51.35715,8.41846617 52.67115,7.84914286 54.07125,7.84914286 C56.19015,7.84914286 58.03875,9.16733835 58.84725,11.0927519 L49.29405,11.0927519 C49.54755,10.4909474 49.90965,9.93606015 50.37135,9.45215038 L50.37135,9.45215038 Z M58.38375,16.3101955 C57.41475,17.7953083 55.76385,18.7228271 53.93415,18.674406 C51.61155,18.6127519 49.64685,16.9477895 49.04895,14.7038797 L57.47325,14.7038797 L57.47325,14.7035789 L61.44555,14.7035789 L61.43835,14.7023759 L62.85885,14.6951579 L62.85885,12.8894436 C62.85885,12.6413233 62.84835,12.4304962 62.82555,12.2265865 C62.31585,7.67230075 58.55265,4.23771429 54.07125,4.23771429 C51.67845,4.23771429 49.43985,5.20312782 47.76765,6.95621053 C46.04325,8.76403008 45.15585,11.1535038 45.26895,13.6843308 C45.47895,18.3850827 49.24335,22.1628271 53.83905,22.2843308 C53.91525,22.2864361 53.99145,22.2873383 54.06765,22.2873383 C56.10705,22.2873383 58.08525,21.5649323 59.66055,20.2401203 C60.89865,19.1989173 61.82955,17.8347068 62.36505,16.3101955 L58.38375,16.3101955 Z" id="Fill-15"></path>
                    <polygon id="Fill-16" points="0.99558 26.7800301 2.31048 26.7800301 4.44888 30.1111579 6.58728 26.7800301 7.90188 26.7800301 7.90188 33.8245414 6.66708 33.8245414 6.66708 28.7725113 4.44888 32.0937143 4.40868 32.0937143 2.21028 28.7926617 2.21028 33.8245414 0.99558 33.8245414"></polygon>
                    <path d="M13.20387,30.7953985 C13.12347,30.0104361 12.66177,29.3966015 11.85867,29.3966015 C11.11587,29.3966015 10.59387,29.9701353 10.48347,30.7953985 L13.20387,30.7953985 Z M9.27897,31.1878797 L9.27897,31.1677293 C9.27897,29.6483308 10.35297,28.4002105 11.86887,28.4002105 C13.55547,28.4002105 14.40837,29.7289323 14.40837,31.2585564 C14.40837,31.3689323 14.39847,31.479609 14.38857,31.6005113 L10.49367,31.6005113 C10.62387,32.4660752 11.23617,32.9490827 12.01947,32.9490827 C12.61167,32.9490827 13.03347,32.7277293 13.45467,32.3150977 L14.16747,32.9490827 C13.66557,33.5526917 12.97287,33.9454737 11.99907,33.9454737 C10.46337,33.9454737 9.27897,32.8281805 9.27897,31.1878797 L9.27897,31.1878797 Z" id="Fill-17"></path>
                    <path d="M15.63435,28.5111278 L16.84905,28.5111278 L16.84905,29.3159398 C17.19015,28.8431579 17.65215,28.4001504 18.46515,28.4001504 C19.22805,28.4001504 19.75995,28.7724812 20.04105,29.336391 C20.47275,28.7724812 21.03495,28.4001504 21.83805,28.4001504 C22.99215,28.4001504 23.69505,29.1348872 23.69505,30.4332331 L23.69505,33.8245113 L22.48035,33.8245113 L22.48035,30.8055639 C22.48035,29.9601504 22.08885,29.507218 21.40635,29.507218 C20.74395,29.507218 20.27205,29.9703759 20.27205,30.8257143 L20.27205,33.8245113 L19.05735,33.8245113 L19.05735,30.7953383 C19.05735,29.9703759 18.65565,29.507218 17.98335,29.507218 C17.31075,29.507218 16.84905,30.0103759 16.84905,30.8356391 L16.84905,33.8245113 L15.63435,33.8245113 L15.63435,28.5111278 Z" id="Fill-18"></path>
                    <path d="M29.41881,31.1778045 L29.41881,31.1576541 C29.41881,30.131188 28.72581,29.4569023 27.90291,29.4569023 C27.07971,29.4569023 26.35701,30.1414135 26.35701,31.1576541 L26.35701,31.1778045 C26.35701,32.2042707 27.07971,32.8785564 27.90291,32.8785564 C28.73631,32.8785564 29.41881,32.2244211 29.41881,31.1778045 M26.38731,32.9994586 L26.38731,33.8247218 L25.17261,33.8247218 L25.17261,26.4782556 L26.38731,26.4782556 L26.38731,29.3967519 C26.77881,28.8430677 27.33081,28.4003609 28.18431,28.4003609 C29.43861,28.4003609 30.65331,29.3967519 30.65331,31.1576541 L30.65331,31.1778045 C30.65331,32.9390075 29.44911,33.9350977 28.18431,33.9350977 C27.31071,33.9350977 26.75871,33.492391 26.38731,32.9994586" id="Fill-19"></path>
                    <path d="M35.53338,30.7953985 C35.45268,30.0104361 34.99098,29.3966015 34.18818,29.3966015 C33.44508,29.3966015 32.92338,29.9701353 32.81268,30.7953985 L35.53338,30.7953985 Z M31.60818,31.1878797 L31.60818,31.1677293 C31.60818,29.6483308 32.68218,28.4002105 34.19838,28.4002105 C35.88468,28.4002105 36.73788,29.7289323 36.73788,31.2585564 C36.73788,31.3689323 36.72768,31.479609 36.71778,31.6005113 L32.82288,31.6005113 C32.95308,32.4660752 33.56568,32.9490827 34.34868,32.9490827 C34.94088,32.9490827 35.36268,32.7277293 35.78418,32.3150977 L36.49698,32.9490827 C35.99508,33.5526917 35.30208,33.9454737 34.32858,33.9454737 C32.79288,33.9454737 31.60818,32.8281805 31.60818,31.1878797 L31.60818,31.1878797 Z" id="Fill-20"></path>
                    <path d="M37.96356,28.5111278 L39.17826,28.5111278 L39.17826,29.7084211 C39.50946,28.9135338 40.12176,28.3700752 41.05566,28.4103759 L41.05566,29.6984962 L40.98516,29.6984962 C39.92076,29.6984962 39.17826,30.3929323 39.17826,31.8016541 L39.17826,33.8245113 L37.96356,33.8245113 L37.96356,28.5111278 Z" id="Fill-21"></path>
                    <path d="M49.26774,31.1980752 L49.26774,31.1779248 C49.26774,30.241985 48.59544,29.4672481 47.64174,29.4672481 C46.66794,29.4672481 46.04574,30.2320602 46.04574,31.1577744 L46.04574,31.1779248 C46.04574,32.1036391 46.71804,32.8889023 47.66154,32.8889023 C48.64554,32.8889023 49.26774,32.1138647 49.26774,31.1980752 M44.83104,31.1980752 L44.83104,31.1779248 C44.83104,29.6582256 46.03554,28.4001805 47.66154,28.4001805 C49.28784,28.4001805 50.48244,29.6380752 50.48244,31.1577744 L50.48244,31.1779248 C50.48244,32.6873985 49.27794,33.9454436 47.64174,33.9454436 C46.02534,33.9454436 44.83104,32.7075489 44.83104,31.1980752" id="Fill-22"></path>
                    <path d="M51.98943,29.557594 L51.31713,29.557594 L51.31713,28.5413534 L51.98943,28.5413534 L51.98943,28.158797 C51.98943,27.5651128 52.14033,27.1221053 52.42113,26.8403008 C52.70223,26.558797 53.09403,26.4177444 53.61603,26.4177444 C54.03753,26.4177444 54.32853,26.4781955 54.59943,26.558797 L54.59943,27.5852632 C54.35853,27.5046617 54.14763,27.4544361 53.88663,27.4544361 C53.42523,27.4544361 53.18403,27.7058647 53.18403,28.2592481 L53.18403,28.5512782 L54.58953,28.5512782 L54.58953,29.557594 L53.20443,29.557594 L53.20443,33.8246617 L51.98943,33.8246617 L51.98943,29.557594 Z" id="Fill-23"></path>
                    <polygon id="Fill-24" points="60.37272 27.9273985 58.14402 27.9273985 58.14402 26.7800301 63.84612 26.7800301 63.84612 27.9273985 61.61742 27.9273985 61.61742 33.8245414 60.37272 33.8245414"></polygon>
                    <path d="M63.59598,33.1301955 L64.13808,32.3049323 C64.71018,32.7377143 65.33268,32.9590677 65.87478,32.9590677 C66.39678,32.9590677 66.69768,32.7377143 66.69768,32.3855338 L66.69768,32.3653835 C66.69768,31.9527519 66.13578,31.8116992 65.51328,31.6204211 C64.73028,31.3993684 63.85698,31.0772632 63.85698,30.0607218 L63.85698,30.0408722 C63.85698,29.0342556 64.69008,28.4204211 65.74398,28.4204211 C66.40668,28.4204211 67.12908,28.6516992 67.69158,29.0243308 L67.20978,29.8898947 C66.69768,29.5777143 66.15588,29.3864361 65.71428,29.3864361 C65.24208,29.3864361 64.97118,29.6077895 64.97118,29.9199699 L64.97118,29.9401203 C64.97118,30.3223759 65.54328,30.4835789 66.16578,30.684782 C66.93858,30.9262857 67.81218,31.2784662 67.81218,32.2345564 L67.81218,32.2547068 C67.81218,33.3716992 66.94878,33.9250827 65.84448,33.9250827 C65.09148,33.9250827 64.25838,33.6535038 63.59598,33.1301955" id="Fill-25"></path>
                    <path d="M69.11826,33.8245113 L70.33296,33.8245113 L70.33296,28.5111278 L69.11826,28.5111278 L69.11826,33.8245113 Z M69.06786,27.6957895 L70.37316,27.6957895 L70.37316,26.5384962 L69.06786,26.5384962 L69.06786,27.6957895 Z" id="Fill-26"></path>
                    <path d="M71.91921,28.5111278 L73.13391,28.5111278 L73.13391,29.336391 C73.47501,28.8329323 73.96701,28.4001504 74.79021,28.4001504 C75.98481,28.4001504 76.67721,29.2055639 76.67721,30.4431579 L76.67721,33.8245113 L75.46281,33.8245113 L75.46281,30.8055639 C75.46281,29.9803008 75.05121,29.507218 74.32821,29.507218 C73.62561,29.507218 73.13391,30.0004511 73.13391,30.8257143 L73.13391,33.8245113 L71.91921,33.8245113 L71.91921,28.5111278 Z" id="Fill-27"></path>
                    <path d="M82.15965,30.9161203 L82.15965,30.8959699 C82.15965,30.0204812 81.44685,29.426797 80.60355,29.426797 C79.76025,29.426797 79.09785,30.0105564 79.09785,30.8860451 L79.09785,30.9061955 C79.09785,31.7816842 79.77015,32.3756692 80.60355,32.3756692 C81.44685,32.3756692 82.15965,31.7717594 82.15965,30.9161203 M78.13425,34.8210827 L78.58605,33.9049925 C79.14795,34.2571729 79.75065,34.4686015 80.47305,34.4686015 C81.55695,34.4686015 82.14945,33.9049925 82.14945,32.8382256 L82.14945,32.4258947 C81.70785,32.9994286 81.15585,33.4021353 80.28225,33.4021353 C79.03785,33.4021353 77.87325,32.4761203 77.87325,30.9161203 L77.87325,30.8959699 C77.87325,29.3260451 79.04775,28.4003308 80.28225,28.4003308 C81.17565,28.4003308 81.72825,28.8129624 82.13955,29.3058947 L82.13955,28.5110075 L83.35395,28.5110075 L83.35395,32.7377744 C83.35395,33.6334135 83.12325,34.2977744 82.68165,34.7404812 C82.19985,35.2234887 81.45675,35.4550677 80.50335,35.4550677 C79.63005,35.4550677 78.81645,35.2334135 78.13425,34.8210827" id="Fill-28"></path>
                    <path d="M89.01687,31.1980752 L89.01687,31.1779248 C89.01687,30.241985 88.34427,29.4672481 87.39057,29.4672481 C86.41707,29.4672481 85.79457,30.2320602 85.79457,31.1577744 L85.79457,31.1779248 C85.79457,32.1036391 86.46717,32.8889023 87.41067,32.8889023 C88.39467,32.8889023 89.01687,32.1138647 89.01687,31.1980752 M84.57987,31.1980752 L84.57987,31.1779248 C84.57987,29.6582256 85.78437,28.4001805 87.41067,28.4001805 C89.03667,28.4001805 90.23157,29.6380752 90.23157,31.1577744 L90.23157,31.1779248 C90.23157,32.6873985 89.02707,33.9454436 87.39057,33.9454436 C85.77447,33.9454436 84.57987,32.7075489 84.57987,31.1980752" id="Fill-29"></path>
                    <path d="M94.7403,31.6006015 C94.4289,31.4796992 93.9969,31.3891729 93.5256,31.3891729 C92.7621,31.3891729 92.3106,31.7010526 92.3106,32.2144361 L92.3106,32.2345865 C92.3106,32.7377444 92.7621,33.0195489 93.3348,33.0195489 C94.1376,33.0195489 94.7403,32.5666165 94.7403,31.9025564 L94.7403,31.6006015 Z M94.7097,33.8246617 L94.7097,33.1705263 C94.3485,33.6030075 93.7965,33.9353383 92.9934,33.9353383 C91.9896,33.9353383 91.1061,33.3615038 91.1061,32.2950376 L91.1061,32.2748872 C91.1061,31.0974436 92.0196,30.5338346 93.2544,30.5338346 C93.8967,30.5338346 94.3083,30.6243609 94.7202,30.755188 L94.7202,30.6544361 C94.7202,29.92 94.2582,29.5172932 93.4149,29.5172932 C92.8227,29.5172932 92.3808,29.6481203 91.899,29.8496241 L91.5678,28.8733835 C92.1501,28.6117293 92.7222,28.4303759 93.5856,28.4303759 C95.1516,28.4303759 95.9145,29.2556391 95.9145,30.6745865 L95.9145,33.8246617 L94.7097,33.8246617 Z" id="Fill-30"></path>
                    <polygon id="Fill-31" points="97.43136 33.8245113 98.64606 33.8245113 98.64606 26.4780451 97.43136 26.4780451"></polygon>
                </g>
            </g>
        </g>
    </g>
</svg>